<?xml version="1.0" standalone="no"?>
<!DOCTYPE svg PUBLIC "-//W3C//DTD SVG 20010904//EN"
 "http://www.w3.org/TR/2001/REC-SVG-20010904/DTD/svg10.dtd">
<svg version="1.0" xmlns="http://www.w3.org/2000/svg"
 width="211.000000pt" height="211.000000pt" viewBox="0 0 211.000000 211.000000"
 preserveAspectRatio="xMidYMid meet">
<metadata>
Created by potrace 1.11, written by Peter Selinger 2001-2013
</metadata>
<g transform="translate(0.000000,211.000000) scale(0.100000,-0.100000)"
fill="#000000" stroke="none">
<path d="M1018 2075 c-2 -2 -32 -5 -68 -8 -231 -19 -440 -117 -611 -287 -128
-127 -193 -228 -249 -387 -89 -253 -73 -533 46 -775 55 -113 103 -179 204
-278 102 -101 204 -170 326 -219 296 -120 637 -90 914 81 97 59 246 202 303
289 122 187 179 386 172 599 -8 269 -104 489 -295 681 -167 169 -390 277 -608
295 -42 3 -89 7 -104 9 -15 1 -29 1 -30 0z m199 -104 c330 -61 607 -307 711
-631 32 -99 34 -114 38 -265 3 -122 0 -152 -22 -235 -44 -174 -133 -330 -255
-446 -188 -179 -424 -269 -679 -259 -103 4 -144 11 -229 37 -394 120 -663 480
-662 884 1 154 24 257 86 391 53 112 89 165 171 253 144 152 359 259 569 283
55 6 209 -1 272 -12z"/>
<path d="M1047 1699 c-24 -14 -21 -36 8 -71 28 -34 62 -96 78 -143 6 -17 11
-194 13 -420 2 -324 5 -397 18 -434 9 -24 14 -47 11 -51 -8 -12 -64 8 -103 37
-38 28 -60 67 -68 120 -3 21 -8 41 -11 46 -7 11 -38 8 -51 -5 -16 -16 -15 -34
3 -94 29 -100 125 -173 229 -177 37 -2 61 -9 86 -28 112 -83 268 -82 365 3 43
38 96 130 109 190 13 60 -56 71 -70 10 -11 -45 -50 -115 -81 -144 -36 -35 -97
-56 -148 -51 -47 4 -125 31 -125 43 0 5 14 18 31 30 43 31 78 91 91 156 9 46
9 57 -3 65 -31 19 -48 10 -59 -33 -19 -74 -32 -98 -69 -128 -19 -17 -38 -30
-42 -30 -3 0 -14 25 -23 55 -15 47 -18 107 -20 432 -3 427 -5 445 -78 553 -45
68 -65 83 -91 69z"/>
<path d="M523 1459 c-152 -58 -212 -219 -137 -366 38 -74 97 -117 197 -142 41
-10 93 -29 114 -41 50 -28 90 -89 98 -149 9 -62 12 -70 30 -77 46 -18 59 59
25 149 -31 82 -95 140 -183 167 -129 38 -142 43 -168 62 -81 61 -98 208 -31
281 26 29 86 56 143 65 54 7 77 27 66 56 -9 23 -88 20 -154 -5z"/>
<path d="M929 1224 c-19 -23 -7 -59 22 -62 31 -4 50 16 43 45 -7 25 -49 36
-65 17z"/>
</g>
</svg>
